<svg width="1280" height="640" viewBox="0 0 1280 640" fill="none" xmlns="http://www.w3.org/2000/svg">
<rect width="1280" height="640" fill="#070707"/>
<rect y="624" width="1280" height="16" fill="url(#paint0_linear_213_15)"/>
<path d="M98.888 230L87.8 210.416H83.048V230H72.968V179.744H91.832C95.72 179.744 99.032 180.44 101.768 181.832C104.504 183.176 106.544 185.024 107.888 187.376C109.28 189.68 109.976 192.272 109.976 195.152C109.976 198.464 109.016 201.464 107.096 204.152C105.176 206.792 102.32 208.616 98.528 209.624L110.552 230H98.888ZM83.048 202.856H91.472C94.208 202.856 96.248 202.208 97.592 200.912C98.936 199.568 99.608 197.72 99.608 195.368C99.608 193.064 98.936 191.288 97.592 190.04C96.248 188.744 94.208 188.096 91.472 188.096H83.048V202.856ZM156.749 190.112V230H146.597V224.96C145.301 226.688 143.597 228.056 141.485 229.064C139.421 230.024 137.165 230.504 134.717 230.504C131.597 230.504 128.837 229.856 126.437 228.56C124.037 227.216 122.141 225.272 120.749 222.728C119.405 220.136 118.733 217.064 118.733 213.512V190.112H128.813V212.072C128.813 215.24 129.605 217.688 131.189 219.416C132.773 221.096 134.933 221.936 137.669 221.936C140.453 221.936 142.637 221.096 144.221 219.416C145.805 217.688 146.597 215.24 146.597 212.072V190.112H156.749ZM181.959 230.648C178.695 230.648 175.767 230.072 173.175 228.92C170.583 227.72 168.519 226.112 166.983 224.096C165.495 222.08 164.679 219.848 164.535 217.4H174.687C174.879 218.936 175.623 220.208 176.919 221.216C178.263 222.224 179.919 222.728 181.887 222.728C183.807 222.728 185.295 222.344 186.351 221.576C187.455 220.808 188.007 219.824 188.007 218.624C188.007 217.328 187.335 216.368 185.991 215.744C184.695 215.072 182.607 214.352 179.727 213.584C176.751 212.864 174.303 212.12 172.383 211.352C170.511 210.584 168.879 209.408 167.487 207.824C166.143 206.24 165.471 204.104 165.471 201.416C165.471 199.208 166.095 197.192 167.343 195.368C168.639 193.544 170.463 192.104 172.815 191.048C175.215 189.992 178.023 189.464 181.239 189.464C185.991 189.464 189.783 190.664 192.615 193.064C195.447 195.416 197.007 198.608 197.295 202.64H187.647C187.503 201.056 186.831 199.808 185.631 198.896C184.479 197.936 182.919 197.456 180.951 197.456C179.127 197.456 177.711 197.792 176.703 198.464C175.743 199.136 175.263 200.072 175.263 201.272C175.263 202.616 175.935 203.648 177.279 204.368C178.623 205.04 180.711 205.736 183.543 206.456C186.423 207.176 188.799 207.92 190.671 208.688C192.543 209.456 194.151 210.656 195.495 212.288C196.887 213.872 197.607 215.984 197.655 218.624C197.655 220.928 197.007 222.992 195.711 224.816C194.463 226.64 192.639 228.08 190.239 229.136C187.887 230.144 185.127 230.648 181.959 230.648ZM217.665 198.392V217.688C217.665 219.032 217.977 220.016 218.601 220.64C219.273 221.216 220.377 221.504 221.913 221.504H226.593V230H220.257C211.761 230 207.513 225.872 207.513 217.616V198.392H202.761V190.112H207.513V180.248H217.665V190.112H226.593V198.392H217.665ZM270.923 209.192C270.923 210.632 270.827 211.928 270.635 213.08H241.475C241.715 215.96 242.723 218.216 244.499 219.848C246.275 221.48 248.459 222.296 251.051 222.296C254.795 222.296 257.459 220.688 259.043 217.472H269.915C268.763 221.312 266.555 224.48 263.291 226.976C260.027 229.424 256.019 230.648 251.267 230.648C247.427 230.648 243.971 229.808 240.899 228.128C237.875 226.4 235.499 223.976 233.771 220.856C232.091 217.736 231.251 214.136 231.251 210.056C231.251 205.928 232.091 202.304 233.771 199.184C235.451 196.064 237.803 193.664 240.827 191.984C243.851 190.304 247.331 189.464 251.267 189.464C255.059 189.464 258.443 190.28 261.419 191.912C264.443 193.544 266.771 195.872 268.403 198.896C270.083 201.872 270.923 205.304 270.923 209.192ZM260.483 206.312C260.435 203.72 259.499 201.656 257.675 200.12C255.851 198.536 253.619 197.744 250.979 197.744C248.483 197.744 246.371 198.512 244.643 200.048C242.963 201.536 241.931 203.624 241.547 206.312H260.483ZM333.577 190.112L321.913 230H311.041L303.769 202.136L296.497 230H285.553L273.817 190.112H284.041L291.097 220.496L298.729 190.112H309.385L316.873 220.424L323.929 190.112H333.577ZM336.438 209.912C336.438 205.88 337.23 202.304 338.814 199.184C340.447 196.064 342.631 193.664 345.367 191.984C348.151 190.304 351.247 189.464 354.655 189.464C357.631 189.464 360.223 190.064 362.431 191.264C364.687 192.464 366.487 193.976 367.831 195.8V190.112H377.983V230H367.831V224.168C366.535 226.04 364.735 227.6 362.431 228.848C360.175 230.048 357.559 230.648 354.583 230.648C351.223 230.648 348.151 229.784 345.367 228.056C342.631 226.328 340.447 223.904 338.814 220.784C337.23 217.616 336.438 213.992 336.438 209.912ZM367.831 210.056C367.831 207.608 367.351 205.52 366.391 203.792C365.431 202.016 364.135 200.672 362.503 199.76C360.871 198.8 359.119 198.32 357.247 198.32C355.375 198.32 353.647 198.776 352.062 199.688C350.479 200.6 349.183 201.944 348.175 203.72C347.215 205.448 346.735 207.512 346.735 209.912C346.735 212.312 347.215 214.424 348.175 216.248C349.183 218.024 350.479 219.392 352.062 220.352C353.695 221.312 355.423 221.792 357.247 221.792C359.119 221.792 360.871 221.336 362.503 220.424C364.135 219.464 365.431 218.12 366.391 216.392C367.351 214.616 367.831 212.504 367.831 210.056ZM397.907 196.304C399.203 194.192 400.883 192.536 402.947 191.336C405.059 190.136 407.459 189.536 410.147 189.536V200.12H407.483C404.315 200.12 401.915 200.864 400.283 202.352C398.699 203.84 397.907 206.432 397.907 210.128V230H387.827V190.112H397.907V196.304ZM454.017 209.192C454.017 210.632 453.921 211.928 453.729 213.08H424.569C424.809 215.96 425.817 218.216 427.593 219.848C429.369 221.48 431.553 222.296 434.145 222.296C437.889 222.296 440.553 220.688 442.137 217.472H453.009C451.857 221.312 449.649 224.48 446.385 226.976C443.121 229.424 439.113 230.648 434.361 230.648C430.521 230.648 427.065 229.808 423.993 228.128C420.969 226.4 418.593 223.976 416.865 220.856C415.185 217.736 414.345 214.136 414.345 210.056C414.345 205.928 415.185 202.304 416.865 199.184C418.545 196.064 420.897 193.664 423.921 191.984C426.945 190.304 430.425 189.464 434.361 189.464C438.153 189.464 441.537 190.28 444.513 191.912C447.537 193.544 449.865 195.872 451.497 198.896C453.177 201.872 454.017 205.304 454.017 209.192ZM443.577 206.312C443.529 203.72 442.593 201.656 440.769 200.12C438.945 198.536 436.713 197.744 434.073 197.744C431.577 197.744 429.465 198.512 427.737 200.048C426.057 201.536 425.025 203.624 424.641 206.312H443.577Z" fill="white"/>
<path d="M91.472 294.56H76.88L74.192 302H69.584L81.68 268.736H86.72L98.768 302H94.16L91.472 294.56ZM90.224 291.008L84.176 274.112L78.128 291.008H90.224ZM151.877 275.696L143.669 302H139.157L132.821 281.12L126.485 302H121.973L113.717 275.696H118.181L124.229 297.776L130.757 275.696H135.221L141.605 297.824L147.557 275.696H151.877ZM154.58 288.752C154.58 286.064 155.124 283.712 156.212 281.696C157.3 279.648 158.788 278.064 160.676 276.944C162.596 275.824 164.724 275.264 167.06 275.264C169.364 275.264 171.364 275.76 173.06 276.752C174.756 277.744 176.02 278.992 176.852 280.496V275.696H181.268V302H176.852V297.104C175.988 298.64 174.692 299.92 172.964 300.944C171.268 301.936 169.284 302.432 167.012 302.432C164.676 302.432 162.564 301.856 160.676 300.704C158.788 299.552 157.3 297.936 156.212 295.856C155.124 293.776 154.58 291.408 154.58 288.752ZM176.852 288.8C176.852 286.816 176.452 285.088 175.652 283.616C174.852 282.144 173.764 281.024 172.388 280.256C171.044 279.456 169.556 279.056 167.924 279.056C166.292 279.056 164.804 279.44 163.46 280.208C162.116 280.976 161.044 282.096 160.244 283.568C159.444 285.04 159.044 286.768 159.044 288.752C159.044 290.768 159.444 292.528 160.244 294.032C161.044 295.504 162.116 296.64 163.46 297.44C164.804 298.208 166.292 298.592 167.924 298.592C169.556 298.592 171.044 298.208 172.388 297.44C173.764 296.64 174.852 295.504 175.652 294.032C176.452 292.528 176.852 290.784 176.852 288.8ZM193.017 279.968C193.785 278.464 194.873 277.296 196.281 276.464C197.721 275.632 199.465 275.216 201.513 275.216V279.728H200.361C195.465 279.728 193.017 282.384 193.017 287.696V302H188.649V275.696H193.017V279.968ZM230.555 287.84C230.555 288.672 230.507 289.552 230.411 290.48H209.387C209.547 293.072 210.427 295.104 212.027 296.576C213.659 298.016 215.627 298.736 217.931 298.736C219.819 298.736 221.387 298.304 222.635 297.44C223.915 296.544 224.811 295.36 225.323 293.888H230.027C229.323 296.416 227.915 298.48 225.803 300.08C223.691 301.648 221.067 302.432 217.931 302.432C215.435 302.432 213.195 301.872 211.211 300.752C209.259 299.632 207.723 298.048 206.603 296C205.483 293.92 204.923 291.52 204.923 288.8C204.923 286.08 205.467 283.696 206.555 281.648C207.643 279.6 209.163 278.032 211.115 276.944C213.099 275.824 215.371 275.264 217.931 275.264C220.427 275.264 222.635 275.808 224.555 276.896C226.475 277.984 227.947 279.488 228.971 281.408C230.027 283.296 230.555 285.44 230.555 287.84ZM226.043 286.928C226.043 285.264 225.675 283.84 224.939 282.656C224.203 281.44 223.195 280.528 221.915 279.92C220.667 279.28 219.275 278.96 217.739 278.96C215.531 278.96 213.643 279.664 212.075 281.072C210.539 282.48 209.659 284.432 209.435 286.928H226.043ZM249.377 275.216C251.361 275.216 253.153 275.648 254.753 276.512C256.353 277.344 257.601 278.608 258.497 280.304C259.425 282 259.889 284.064 259.889 286.496V302H255.569V287.12C255.569 284.496 254.913 282.496 253.601 281.12C252.289 279.712 250.497 279.008 248.225 279.008C245.921 279.008 244.081 279.728 242.705 281.168C241.361 282.608 240.689 284.704 240.689 287.456V302H236.321V266.48H240.689V279.44C241.553 278.096 242.737 277.056 244.241 276.32C245.777 275.584 247.489 275.216 249.377 275.216ZM278.496 302.432C276.032 302.432 273.792 301.872 271.776 300.752C269.792 299.632 268.224 298.048 267.072 296C265.952 293.92 265.392 291.52 265.392 288.8C265.392 286.112 265.968 283.744 267.12 281.696C268.304 279.616 269.904 278.032 271.92 276.944C273.936 275.824 276.192 275.264 278.688 275.264C281.184 275.264 283.44 275.824 285.456 276.944C287.472 278.032 289.056 279.6 290.208 281.648C291.392 283.696 291.984 286.08 291.984 288.8C291.984 291.52 291.376 293.92 290.16 296C288.976 298.048 287.36 299.632 285.312 300.752C283.264 301.872 280.992 302.432 278.496 302.432ZM278.496 298.592C280.064 298.592 281.536 298.224 282.912 297.488C284.288 296.752 285.392 295.648 286.224 294.176C287.088 292.704 287.52 290.912 287.52 288.8C287.52 286.688 287.104 284.896 286.272 283.424C285.44 281.952 284.352 280.864 283.008 280.16C281.664 279.424 280.208 279.056 278.64 279.056C277.04 279.056 275.568 279.424 274.224 280.16C272.912 280.864 271.856 281.952 271.056 283.424C270.256 284.896 269.856 286.688 269.856 288.8C269.856 290.944 270.24 292.752 271.008 294.224C271.808 295.696 272.864 296.8 274.176 297.536C275.488 298.24 276.928 298.592 278.496 298.592ZM321.055 275.696V302H316.687V298.112C315.855 299.456 314.687 300.512 313.183 301.28C311.711 302.016 310.079 302.384 308.287 302.384C306.239 302.384 304.399 301.968 302.767 301.136C301.135 300.272 299.839 298.992 298.879 297.296C297.951 295.6 297.487 293.536 297.487 291.104V275.696H301.807V290.528C301.807 293.12 302.463 295.12 303.775 296.528C305.087 297.904 306.879 298.592 309.151 298.592C311.487 298.592 313.327 297.872 314.671 296.432C316.015 294.992 316.687 292.896 316.687 290.144V275.696H321.055ZM337.742 302.432C335.726 302.432 333.918 302.096 332.318 301.424C330.718 300.72 329.454 299.76 328.526 298.544C327.598 297.296 327.086 295.872 326.99 294.272H331.502C331.63 295.584 332.238 296.656 333.326 297.488C334.446 298.32 335.902 298.736 337.694 298.736C339.358 298.736 340.67 298.368 341.63 297.632C342.59 296.896 343.07 295.968 343.07 294.848C343.07 293.696 342.558 292.848 341.534 292.304C340.51 291.728 338.926 291.168 336.782 290.624C334.83 290.112 333.23 289.6 331.982 289.088C330.766 288.544 329.71 287.76 328.814 286.736C327.95 285.68 327.518 284.304 327.518 282.608C327.518 281.264 327.918 280.032 328.718 278.912C329.518 277.792 330.654 276.912 332.126 276.272C333.598 275.6 335.278 275.264 337.166 275.264C340.078 275.264 342.43 276 344.222 277.472C346.014 278.944 346.974 280.96 347.102 283.52H342.734C342.638 282.144 342.078 281.04 341.054 280.208C340.062 279.376 338.718 278.96 337.022 278.96C335.454 278.96 334.206 279.296 333.278 279.968C332.35 280.64 331.886 281.52 331.886 282.608C331.886 283.472 332.158 284.192 332.702 284.768C333.278 285.312 333.982 285.76 334.814 286.112C335.678 286.432 336.862 286.8 338.366 287.216C340.254 287.728 341.79 288.24 342.974 288.752C344.158 289.232 345.166 289.968 345.998 290.96C346.862 291.952 347.31 293.248 347.342 294.848C347.342 296.288 346.942 297.584 346.142 298.736C345.342 299.888 344.206 300.8 342.734 301.472C341.294 302.112 339.63 302.432 337.742 302.432ZM377.509 287.84C377.509 288.672 377.461 289.552 377.365 290.48H356.341C356.501 293.072 357.381 295.104 358.981 296.576C360.613 298.016 362.581 298.736 364.885 298.736C366.773 298.736 368.341 298.304 369.589 297.44C370.869 296.544 371.765 295.36 372.277 293.888H376.981C376.277 296.416 374.869 298.48 372.757 300.08C370.645 301.648 368.021 302.432 364.885 302.432C362.389 302.432 360.149 301.872 358.165 300.752C356.213 299.632 354.677 298.048 353.557 296C352.437 293.92 351.877 291.52 351.877 288.8C351.877 286.08 352.421 283.696 353.509 281.648C354.597 279.6 356.117 278.032 358.069 276.944C360.053 275.824 362.325 275.264 364.885 275.264C367.381 275.264 369.589 275.808 371.509 276.896C373.429 277.984 374.901 279.488 375.925 281.408C376.981 283.296 377.509 285.44 377.509 287.84ZM372.997 286.928C372.997 285.264 372.629 283.84 371.893 282.656C371.157 281.44 370.149 280.528 368.869 279.92C367.621 279.28 366.229 278.96 364.693 278.96C362.485 278.96 360.597 279.664 359.029 281.072C357.493 282.48 356.613 284.432 356.389 286.928H372.997ZM398.327 271.424C397.495 271.424 396.791 271.136 396.215 270.56C395.639 269.984 395.351 269.28 395.351 268.448C395.351 267.616 395.639 266.912 396.215 266.336C396.791 265.76 397.495 265.472 398.327 265.472C399.127 265.472 399.799 265.76 400.343 266.336C400.919 266.912 401.207 267.616 401.207 268.448C401.207 269.28 400.919 269.984 400.343 270.56C399.799 271.136 399.127 271.424 398.327 271.424ZM400.439 275.696V302H396.071V275.696H400.439ZM420.7 275.216C423.9 275.216 426.492 276.192 428.476 278.144C430.46 280.064 431.452 282.848 431.452 286.496V302H427.132V287.12C427.132 284.496 426.476 282.496 425.164 281.12C423.852 279.712 422.06 279.008 419.788 279.008C417.484 279.008 415.644 279.728 414.268 281.168C412.924 282.608 412.252 284.704 412.252 287.456V302H407.884V275.696H412.252V279.44C413.116 278.096 414.284 277.056 415.756 276.32C417.26 275.584 418.908 275.216 420.7 275.216ZM448.379 297.968L456.539 275.696H461.195L450.875 302H445.787L435.467 275.696H440.171L448.379 297.968ZM489.493 287.84C489.493 288.672 489.445 289.552 489.349 290.48H468.325C468.485 293.072 469.365 295.104 470.965 296.576C472.597 298.016 474.565 298.736 476.869 298.736C478.757 298.736 480.325 298.304 481.573 297.44C482.853 296.544 483.749 295.36 484.261 293.888H488.965C488.261 296.416 486.853 298.48 484.741 300.08C482.629 301.648 480.005 302.432 476.869 302.432C474.373 302.432 472.133 301.872 470.149 300.752C468.197 299.632 466.661 298.048 465.541 296C464.421 293.92 463.861 291.52 463.861 288.8C463.861 286.08 464.405 283.696 465.493 281.648C466.581 279.6 468.101 278.032 470.053 276.944C472.037 275.824 474.309 275.264 476.869 275.264C479.365 275.264 481.573 275.808 483.493 276.896C485.413 277.984 486.885 279.488 487.909 281.408C488.965 283.296 489.493 285.44 489.493 287.84ZM484.981 286.928C484.981 285.264 484.613 283.84 483.877 282.656C483.141 281.44 482.133 280.528 480.853 279.92C479.605 279.28 478.213 278.96 476.677 278.96C474.469 278.96 472.581 279.664 471.013 281.072C469.477 282.48 468.597 284.432 468.373 286.928H484.981ZM508.075 275.216C511.275 275.216 513.867 276.192 515.851 278.144C517.835 280.064 518.827 282.848 518.827 286.496V302H514.507V287.12C514.507 284.496 513.851 282.496 512.539 281.12C511.227 279.712 509.435 279.008 507.163 279.008C504.859 279.008 503.019 279.728 501.643 281.168C500.299 282.608 499.627 284.704 499.627 287.456V302H495.259V275.696H499.627V279.44C500.491 278.096 501.659 277.056 503.131 276.32C504.635 275.584 506.283 275.216 508.075 275.216ZM531.29 279.296V294.8C531.29 296.08 531.562 296.992 532.106 297.536C532.65 298.048 533.594 298.304 534.938 298.304H538.154V302H534.218C531.786 302 529.962 301.44 528.746 300.32C527.53 299.2 526.922 297.36 526.922 294.8V279.296H523.514V275.696H526.922V269.072H531.29V275.696H538.154V279.296H531.29ZM554.918 302.432C552.454 302.432 550.214 301.872 548.198 300.752C546.214 299.632 544.646 298.048 543.494 296C542.374 293.92 541.814 291.52 541.814 288.8C541.814 286.112 542.39 283.744 543.542 281.696C544.726 279.616 546.326 278.032 548.342 276.944C550.358 275.824 552.614 275.264 555.11 275.264C557.606 275.264 559.862 275.824 561.878 276.944C563.894 278.032 565.478 279.6 566.63 281.648C567.814 283.696 568.406 286.08 568.406 288.8C568.406 291.52 567.798 293.92 566.582 296C565.398 298.048 563.782 299.632 561.734 300.752C559.686 301.872 557.414 302.432 554.918 302.432ZM554.918 298.592C556.486 298.592 557.958 298.224 559.334 297.488C560.71 296.752 561.814 295.648 562.646 294.176C563.51 292.704 563.942 290.912 563.942 288.8C563.942 286.688 563.526 284.896 562.694 283.424C561.862 281.952 560.774 280.864 559.43 280.16C558.086 279.424 556.63 279.056 555.062 279.056C553.462 279.056 551.99 279.424 550.646 280.16C549.334 280.864 548.278 281.952 547.478 283.424C546.678 284.896 546.278 286.688 546.278 288.8C546.278 290.944 546.662 292.752 547.43 294.224C548.23 295.696 549.286 296.8 550.598 297.536C551.91 298.24 553.35 298.592 554.918 298.592ZM578.517 279.968C579.285 278.464 580.373 277.296 581.781 276.464C583.221 275.632 584.965 275.216 587.013 275.216V279.728H585.861C580.965 279.728 578.517 282.384 578.517 287.696V302H574.149V275.696H578.517V279.968ZM614.711 275.696L598.871 314.384H594.359L599.543 301.712L588.935 275.696H593.783L602.039 297.008L610.199 275.696H614.711ZM103.328 327.216C105.376 327.216 107.2 327.648 108.8 328.512C110.4 329.344 111.664 330.608 112.592 332.304C113.52 334 113.984 336.064 113.984 338.496V354H109.664V339.12C109.664 336.496 109.008 334.496 107.696 333.12C106.416 331.712 104.672 331.008 102.464 331.008C100.192 331.008 98.384 331.744 97.04 333.216C95.696 334.656 95.024 336.752 95.024 339.504V354H90.704V339.12C90.704 336.496 90.048 334.496 88.736 333.12C87.456 331.712 85.712 331.008 83.504 331.008C81.232 331.008 79.424 331.744 78.08 333.216C76.736 334.656 76.064 336.752 76.064 339.504V354H71.696V327.696H76.064V331.488C76.928 330.112 78.08 329.056 79.52 328.32C80.992 327.584 82.608 327.216 84.368 327.216C86.576 327.216 88.528 327.712 90.224 328.704C91.92 329.696 93.184 331.152 94.016 333.072C94.752 331.216 95.968 329.776 97.664 328.752C99.36 327.728 101.248 327.216 103.328 327.216ZM119.517 340.752C119.517 338.064 120.061 335.712 121.149 333.696C122.237 331.648 123.725 330.064 125.613 328.944C127.533 327.824 129.661 327.264 131.997 327.264C134.301 327.264 136.301 327.76 137.997 328.752C139.693 329.744 140.957 330.992 141.789 332.496V327.696H146.205V354H141.789V349.104C140.925 350.64 139.629 351.92 137.901 352.944C136.205 353.936 134.221 354.432 131.949 354.432C129.613 354.432 127.501 353.856 125.613 352.704C123.725 351.552 122.237 349.936 121.149 347.856C120.061 345.776 119.517 343.408 119.517 340.752ZM141.789 340.8C141.789 338.816 141.389 337.088 140.589 335.616C139.789 334.144 138.701 333.024 137.325 332.256C135.981 331.456 134.493 331.056 132.861 331.056C131.229 331.056 129.741 331.44 128.397 332.208C127.053 332.976 125.981 334.096 125.181 335.568C124.381 337.04 123.981 338.768 123.981 340.752C123.981 342.768 124.381 344.528 125.181 346.032C125.981 347.504 127.053 348.64 128.397 349.44C129.741 350.208 131.229 350.592 132.861 350.592C134.493 350.592 135.981 350.208 137.325 349.44C138.701 348.64 139.789 347.504 140.589 346.032C141.389 344.528 141.789 342.784 141.789 340.8ZM166.403 327.216C169.603 327.216 172.195 328.192 174.179 330.144C176.163 332.064 177.155 334.848 177.155 338.496V354H172.835V339.12C172.835 336.496 172.179 334.496 170.867 333.12C169.555 331.712 167.763 331.008 165.491 331.008C163.187 331.008 161.347 331.728 159.971 333.168C158.627 334.608 157.955 336.704 157.955 339.456V354H153.587V327.696H157.955V331.44C158.819 330.096 159.987 329.056 161.459 328.32C162.963 327.584 164.611 327.216 166.403 327.216ZM182.658 340.752C182.658 338.064 183.202 335.712 184.29 333.696C185.378 331.648 186.866 330.064 188.754 328.944C190.674 327.824 192.802 327.264 195.138 327.264C197.442 327.264 199.442 327.76 201.138 328.752C202.834 329.744 204.098 330.992 204.93 332.496V327.696H209.346V354H204.93V349.104C204.066 350.64 202.77 351.92 201.042 352.944C199.346 353.936 197.362 354.432 195.09 354.432C192.754 354.432 190.642 353.856 188.754 352.704C186.866 351.552 185.378 349.936 184.29 347.856C183.202 345.776 182.658 343.408 182.658 340.752ZM204.93 340.8C204.93 338.816 204.53 337.088 203.73 335.616C202.93 334.144 201.842 333.024 200.466 332.256C199.122 331.456 197.634 331.056 196.002 331.056C194.37 331.056 192.882 331.44 191.538 332.208C190.194 332.976 189.122 334.096 188.322 335.568C187.522 337.04 187.122 338.768 187.122 340.752C187.122 342.768 187.522 344.528 188.322 346.032C189.122 347.504 190.194 348.64 191.538 349.44C192.882 350.208 194.37 350.592 196.002 350.592C197.634 350.592 199.122 350.208 200.466 349.44C201.842 348.64 202.93 347.504 203.73 346.032C204.53 344.528 204.93 342.784 204.93 340.8ZM227.575 327.264C229.847 327.264 231.831 327.76 233.527 328.752C235.255 329.744 236.535 330.992 237.367 332.496V327.696H241.783V354.576C241.783 356.976 241.271 359.104 240.247 360.96C239.223 362.848 237.751 364.32 235.831 365.376C233.943 366.432 231.735 366.96 229.207 366.96C225.751 366.96 222.871 366.144 220.567 364.512C218.263 362.88 216.903 360.656 216.487 357.84H220.807C221.287 359.44 222.279 360.72 223.783 361.68C225.287 362.672 227.095 363.168 229.207 363.168C231.607 363.168 233.559 362.416 235.063 360.912C236.599 359.408 237.367 357.296 237.367 354.576V349.056C236.503 350.592 235.223 351.872 233.527 352.896C231.831 353.92 229.847 354.432 227.575 354.432C225.239 354.432 223.111 353.856 221.191 352.704C219.303 351.552 217.815 349.936 216.727 347.856C215.639 345.776 215.095 343.408 215.095 340.752C215.095 338.064 215.639 335.712 216.727 333.696C217.815 331.648 219.303 330.064 221.191 328.944C223.111 327.824 225.239 327.264 227.575 327.264ZM237.367 340.8C237.367 338.816 236.967 337.088 236.167 335.616C235.367 334.144 234.279 333.024 232.903 332.256C231.559 331.456 230.071 331.056 228.439 331.056C226.807 331.056 225.319 331.44 223.975 332.208C222.631 332.976 221.559 334.096 220.759 335.568C219.959 337.04 219.559 338.768 219.559 340.752C219.559 342.768 219.959 344.528 220.759 346.032C221.559 347.504 222.631 348.64 223.975 349.44C225.319 350.208 226.807 350.592 228.439 350.592C230.071 350.592 231.559 350.208 232.903 349.44C234.279 348.64 235.367 347.504 236.167 346.032C236.967 344.528 237.367 342.784 237.367 340.8ZM273.165 339.84C273.165 340.672 273.117 341.552 273.021 342.48H251.997C252.157 345.072 253.037 347.104 254.637 348.576C256.269 350.016 258.237 350.736 260.541 350.736C262.429 350.736 263.997 350.304 265.245 349.44C266.525 348.544 267.421 347.36 267.933 345.888H272.637C271.933 348.416 270.525 350.48 268.413 352.08C266.301 353.648 263.677 354.432 260.541 354.432C258.045 354.432 255.805 353.872 253.821 352.752C251.869 351.632 250.333 350.048 249.213 348C248.093 345.92 247.533 343.52 247.533 340.8C247.533 338.08 248.077 335.696 249.165 333.648C250.253 331.6 251.773 330.032 253.725 328.944C255.709 327.824 257.981 327.264 260.541 327.264C263.037 327.264 265.245 327.808 267.165 328.896C269.085 329.984 270.557 331.488 271.581 333.408C272.637 335.296 273.165 337.44 273.165 339.84ZM268.653 338.928C268.653 337.264 268.285 335.84 267.549 334.656C266.813 333.44 265.805 332.528 264.525 331.92C263.277 331.28 261.885 330.96 260.349 330.96C258.141 330.96 256.253 331.664 254.685 333.072C253.149 334.48 252.269 336.432 252.045 338.928H268.653ZM310.562 327.216C312.61 327.216 314.434 327.648 316.034 328.512C317.634 329.344 318.898 330.608 319.826 332.304C320.754 334 321.218 336.064 321.218 338.496V354H316.898V339.12C316.898 336.496 316.242 334.496 314.93 333.12C313.65 331.712 311.906 331.008 309.698 331.008C307.426 331.008 305.618 331.744 304.274 333.216C302.93 334.656 302.258 336.752 302.258 339.504V354H297.938V339.12C297.938 336.496 297.282 334.496 295.97 333.12C294.69 331.712 292.946 331.008 290.738 331.008C288.466 331.008 286.658 331.744 285.314 333.216C283.97 334.656 283.298 336.752 283.298 339.504V354H278.93V327.696H283.298V331.488C284.162 330.112 285.314 329.056 286.754 328.32C288.226 327.584 289.842 327.216 291.602 327.216C293.81 327.216 295.762 327.712 297.458 328.704C299.154 329.696 300.418 331.152 301.25 333.072C301.986 331.216 303.202 329.776 304.898 328.752C306.594 327.728 308.482 327.216 310.562 327.216ZM352.384 339.84C352.384 340.672 352.336 341.552 352.24 342.48H331.216C331.376 345.072 332.256 347.104 333.856 348.576C335.488 350.016 337.456 350.736 339.76 350.736C341.648 350.736 343.216 350.304 344.464 349.44C345.744 348.544 346.64 347.36 347.152 345.888H351.856C351.152 348.416 349.744 350.48 347.632 352.08C345.52 353.648 342.896 354.432 339.76 354.432C337.264 354.432 335.024 353.872 333.04 352.752C331.088 351.632 329.552 350.048 328.432 348C327.312 345.92 326.752 343.52 326.752 340.8C326.752 338.08 327.296 335.696 328.384 333.648C329.472 331.6 330.992 330.032 332.944 328.944C334.928 327.824 337.2 327.264 339.76 327.264C342.256 327.264 344.464 327.808 346.384 328.896C348.304 329.984 349.776 331.488 350.8 333.408C351.856 335.296 352.384 337.44 352.384 339.84ZM347.872 338.928C347.872 337.264 347.504 335.84 346.768 334.656C346.032 333.44 345.024 332.528 343.744 331.92C342.496 331.28 341.104 330.96 339.568 330.96C337.36 330.96 335.472 331.664 333.904 333.072C332.368 334.48 331.488 336.432 331.264 338.928H347.872ZM370.965 327.216C374.165 327.216 376.757 328.192 378.741 330.144C380.725 332.064 381.717 334.848 381.717 338.496V354H377.397V339.12C377.397 336.496 376.741 334.496 375.429 333.12C374.117 331.712 372.325 331.008 370.053 331.008C367.749 331.008 365.909 331.728 364.533 333.168C363.189 334.608 362.517 336.704 362.517 339.456V354H358.149V327.696H362.517V331.44C363.381 330.096 364.549 329.056 366.021 328.32C367.525 327.584 369.173 327.216 370.965 327.216ZM394.18 331.296V346.8C394.18 348.08 394.452 348.992 394.996 349.536C395.54 350.048 396.484 350.304 397.828 350.304H401.044V354H397.108C394.676 354 392.852 353.44 391.636 352.32C390.42 351.2 389.812 349.36 389.812 346.8V331.296H386.404V327.696H389.812V321.072H394.18V327.696H401.044V331.296H394.18ZM428.446 354.432C426.43 354.432 424.622 354.096 423.022 353.424C421.422 352.72 420.158 351.76 419.23 350.544C418.302 349.296 417.79 347.872 417.694 346.272H422.206C422.334 347.584 422.942 348.656 424.03 349.488C425.15 350.32 426.606 350.736 428.398 350.736C430.062 350.736 431.374 350.368 432.334 349.632C433.294 348.896 433.774 347.968 433.774 346.848C433.774 345.696 433.262 344.848 432.238 344.304C431.214 343.728 429.63 343.168 427.486 342.624C425.534 342.112 423.934 341.6 422.686 341.088C421.47 340.544 420.414 339.76 419.518 338.736C418.654 337.68 418.222 336.304 418.222 334.608C418.222 333.264 418.622 332.032 419.422 330.912C420.222 329.792 421.358 328.912 422.83 328.272C424.302 327.6 425.982 327.264 427.87 327.264C430.782 327.264 433.134 328 434.926 329.472C436.718 330.944 437.678 332.96 437.806 335.52H433.438C433.342 334.144 432.782 333.04 431.758 332.208C430.766 331.376 429.422 330.96 427.726 330.96C426.158 330.96 424.91 331.296 423.982 331.968C423.054 332.64 422.59 333.52 422.59 334.608C422.59 335.472 422.862 336.192 423.406 336.768C423.982 337.312 424.686 337.76 425.518 338.112C426.382 338.432 427.566 338.8 429.07 339.216C430.958 339.728 432.494 340.24 433.678 340.752C434.862 341.232 435.87 341.968 436.702 342.96C437.566 343.952 438.014 345.248 438.046 346.848C438.046 348.288 437.646 349.584 436.846 350.736C436.046 351.888 434.91 352.8 433.438 353.472C431.998 354.112 430.334 354.432 428.446 354.432ZM455.684 354.432C453.22 354.432 450.98 353.872 448.964 352.752C446.98 351.632 445.412 350.048 444.26 348C443.14 345.92 442.58 343.52 442.58 340.8C442.58 338.112 443.156 335.744 444.308 333.696C445.492 331.616 447.092 330.032 449.108 328.944C451.124 327.824 453.38 327.264 455.876 327.264C458.372 327.264 460.628 327.824 462.644 328.944C464.66 330.032 466.244 331.6 467.396 333.648C468.58 335.696 469.172 338.08 469.172 340.8C469.172 343.52 468.564 345.92 467.348 348C466.164 350.048 464.548 351.632 462.5 352.752C460.452 353.872 458.18 354.432 455.684 354.432ZM455.684 350.592C457.252 350.592 458.724 350.224 460.1 349.488C461.476 348.752 462.58 347.648 463.412 346.176C464.276 344.704 464.708 342.912 464.708 340.8C464.708 338.688 464.292 336.896 463.46 335.424C462.628 333.952 461.54 332.864 460.196 332.16C458.852 331.424 457.396 331.056 455.828 331.056C454.228 331.056 452.756 331.424 451.412 332.16C450.1 332.864 449.044 333.952 448.244 335.424C447.444 336.896 447.044 338.688 447.044 340.8C447.044 342.944 447.428 344.752 448.196 346.224C448.996 347.696 450.052 348.8 451.364 349.536C452.676 350.24 454.116 350.592 455.684 350.592ZM485.619 331.296H480.099V354H475.731V331.296H472.323V327.696H475.731V325.824C475.731 322.88 476.483 320.736 477.987 319.392C479.523 318.016 481.971 317.328 485.331 317.328V320.976C483.411 320.976 482.051 321.36 481.251 322.128C480.483 322.864 480.099 324.096 480.099 325.824V327.696H485.619V331.296ZM496.04 331.296V346.8C496.04 348.08 496.312 348.992 496.856 349.536C497.4 350.048 498.344 350.304 499.688 350.304H502.904V354H498.968C496.536 354 494.712 353.44 493.496 352.32C492.28 351.2 491.672 349.36 491.672 346.8V331.296H488.264V327.696H491.672V321.072H496.04V327.696H502.904V331.296H496.04ZM543.236 327.696L535.028 354H530.516L524.18 333.12L517.844 354H513.332L505.076 327.696H509.54L515.588 349.776L522.116 327.696H526.58L532.964 349.824L538.916 327.696H543.236ZM545.939 340.752C545.939 338.064 546.483 335.712 547.571 333.696C548.659 331.648 550.147 330.064 552.035 328.944C553.955 327.824 556.083 327.264 558.419 327.264C560.723 327.264 562.723 327.76 564.419 328.752C566.115 329.744 567.379 330.992 568.211 332.496V327.696H572.627V354H568.211V349.104C567.347 350.64 566.051 351.92 564.323 352.944C562.627 353.936 560.643 354.432 558.371 354.432C556.035 354.432 553.923 353.856 552.035 352.704C550.147 351.552 548.659 349.936 547.571 347.856C546.483 345.776 545.939 343.408 545.939 340.752ZM568.211 340.8C568.211 338.816 567.811 337.088 567.011 335.616C566.211 334.144 565.123 333.024 563.747 332.256C562.403 331.456 560.915 331.056 559.283 331.056C557.651 331.056 556.163 331.44 554.819 332.208C553.475 332.976 552.403 334.096 551.603 335.568C550.803 337.04 550.403 338.768 550.403 340.752C550.403 342.768 550.803 344.528 551.603 346.032C552.403 347.504 553.475 348.64 554.819 349.44C556.163 350.208 557.651 350.592 559.283 350.592C560.915 350.592 562.403 350.208 563.747 349.44C565.123 348.64 566.211 347.504 567.011 346.032C567.811 344.528 568.211 342.784 568.211 340.8ZM584.377 331.968C585.145 330.464 586.233 329.296 587.641 328.464C589.081 327.632 590.825 327.216 592.873 327.216V331.728H591.721C586.825 331.728 584.377 334.384 584.377 339.696V354H580.009V327.696H584.377V331.968ZM621.915 339.84C621.915 340.672 621.867 341.552 621.771 342.48H600.747C600.907 345.072 601.787 347.104 603.387 348.576C605.019 350.016 606.987 350.736 609.291 350.736C611.179 350.736 612.747 350.304 613.995 349.44C615.275 348.544 616.171 347.36 616.683 345.888H621.387C620.683 348.416 619.275 350.48 617.163 352.08C615.051 353.648 612.427 354.432 609.291 354.432C606.795 354.432 604.555 353.872 602.571 352.752C600.619 351.632 599.083 350.048 597.963 348C596.843 345.92 596.283 343.52 596.283 340.8C596.283 338.08 596.827 335.696 597.915 333.648C599.003 331.6 600.523 330.032 602.475 328.944C604.459 327.824 606.731 327.264 609.291 327.264C611.787 327.264 613.995 327.808 615.915 328.896C617.835 329.984 619.307 331.488 620.331 333.408C621.387 335.296 621.915 337.44 621.915 339.84ZM617.403 338.928C617.403 337.264 617.035 335.84 616.299 334.656C615.563 333.44 614.555 332.528 613.275 331.92C612.027 331.28 610.635 330.96 609.099 330.96C606.891 330.96 605.003 331.664 603.435 333.072C601.899 334.48 601.019 336.432 600.795 338.928H617.403ZM651.181 331.296H645.661V354H641.293V331.296H637.885V327.696H641.293V325.824C641.293 322.88 642.045 320.736 643.549 319.392C645.085 318.016 647.533 317.328 650.893 317.328V320.976C648.973 320.976 647.613 321.36 646.813 322.128C646.045 322.864 645.661 324.096 645.661 325.824V327.696H651.181V331.296ZM667.746 354.432C665.282 354.432 663.042 353.872 661.026 352.752C659.042 351.632 657.474 350.048 656.322 348C655.202 345.92 654.642 343.52 654.642 340.8C654.642 338.112 655.218 335.744 656.37 333.696C657.554 331.616 659.154 330.032 661.17 328.944C663.186 327.824 665.442 327.264 667.938 327.264C670.434 327.264 672.69 327.824 674.706 328.944C676.722 330.032 678.306 331.6 679.458 333.648C680.642 335.696 681.234 338.08 681.234 340.8C681.234 343.52 680.626 345.92 679.41 348C678.226 350.048 676.61 351.632 674.562 352.752C672.514 353.872 670.242 354.432 667.746 354.432ZM667.746 350.592C669.314 350.592 670.786 350.224 672.162 349.488C673.538 348.752 674.642 347.648 675.474 346.176C676.338 344.704 676.77 342.912 676.77 340.8C676.77 338.688 676.354 336.896 675.522 335.424C674.69 333.952 673.602 332.864 672.258 332.16C670.914 331.424 669.458 331.056 667.89 331.056C666.29 331.056 664.818 331.424 663.474 332.16C662.162 332.864 661.106 333.952 660.306 335.424C659.506 336.896 659.106 338.688 659.106 340.8C659.106 342.944 659.49 344.752 660.258 346.224C661.058 347.696 662.114 348.8 663.426 349.536C664.738 350.24 666.178 350.592 667.746 350.592ZM691.345 331.968C692.113 330.464 693.201 329.296 694.609 328.464C696.049 327.632 697.793 327.216 699.841 327.216V331.728H698.689C693.793 331.728 691.345 334.384 691.345 339.696V354H686.977V327.696H691.345V331.968ZM77.024 383.296V398.8C77.024 400.08 77.296 400.992 77.84 401.536C78.384 402.048 79.328 402.304 80.672 402.304H83.888V406H79.952C77.52 406 75.696 405.44 74.48 404.32C73.264 403.2 72.656 401.36 72.656 398.8V383.296H69.248V379.696H72.656V373.072H77.024V379.696H83.888V383.296H77.024ZM93.5484 383.968C94.3164 382.464 95.4044 381.296 96.8124 380.464C98.2524 379.632 99.9964 379.216 102.044 379.216V383.728H100.892C95.9964 383.728 93.5484 386.384 93.5484 391.696V406H89.1804V379.696H93.5484V383.968ZM105.455 392.752C105.455 390.064 105.999 387.712 107.087 385.696C108.175 383.648 109.663 382.064 111.551 380.944C113.471 379.824 115.599 379.264 117.935 379.264C120.239 379.264 122.239 379.76 123.935 380.752C125.631 381.744 126.895 382.992 127.727 384.496V379.696H132.143V406H127.727V401.104C126.863 402.64 125.567 403.92 123.839 404.944C122.143 405.936 120.159 406.432 117.887 406.432C115.551 406.432 113.439 405.856 111.551 404.704C109.663 403.552 108.175 401.936 107.087 399.856C105.999 397.776 105.455 395.408 105.455 392.752ZM127.727 392.8C127.727 390.816 127.327 389.088 126.527 387.616C125.727 386.144 124.639 385.024 123.263 384.256C121.919 383.456 120.431 383.056 118.799 383.056C117.167 383.056 115.679 383.44 114.335 384.208C112.991 384.976 111.919 386.096 111.119 387.568C110.319 389.04 109.919 390.768 109.919 392.752C109.919 394.768 110.319 396.528 111.119 398.032C111.919 399.504 112.991 400.64 114.335 401.44C115.679 402.208 117.167 402.592 118.799 402.592C120.431 402.592 121.919 402.208 123.263 401.44C124.639 400.64 125.727 399.504 126.527 398.032C127.327 396.528 127.727 394.784 127.727 392.8ZM137.892 392.8C137.892 390.08 138.436 387.712 139.524 385.696C140.612 383.648 142.116 382.064 144.036 380.944C145.988 379.824 148.212 379.264 150.708 379.264C153.94 379.264 156.596 380.048 158.676 381.616C160.788 383.184 162.18 385.36 162.852 388.144H158.148C157.7 386.544 156.82 385.28 155.508 384.352C154.228 383.424 152.628 382.96 150.708 382.96C148.212 382.96 146.196 383.824 144.66 385.552C143.124 387.248 142.356 389.664 142.356 392.8C142.356 395.968 143.124 398.416 144.66 400.144C146.196 401.872 148.212 402.736 150.708 402.736C152.628 402.736 154.228 402.288 155.508 401.392C156.788 400.496 157.668 399.216 158.148 397.552H162.852C162.148 400.24 160.74 402.4 158.628 404.032C156.516 405.632 153.876 406.432 150.708 406.432C148.212 406.432 145.988 405.872 144.036 404.752C142.116 403.632 140.612 402.048 139.524 400C138.436 397.952 137.892 395.552 137.892 392.8ZM183.368 406L173.048 394.384V406H168.68V370.48H173.048V391.36L183.176 379.696H189.272L176.888 392.8L189.32 406H183.368ZM195.64 375.424C194.808 375.424 194.104 375.136 193.528 374.56C192.952 373.984 192.664 373.28 192.664 372.448C192.664 371.616 192.952 370.912 193.528 370.336C194.104 369.76 194.808 369.472 195.64 369.472C196.44 369.472 197.112 369.76 197.656 370.336C198.232 370.912 198.52 371.616 198.52 372.448C198.52 373.28 198.232 373.984 197.656 374.56C197.112 375.136 196.44 375.424 195.64 375.424ZM197.752 379.696V406H193.384V379.696H197.752ZM218.012 379.216C221.212 379.216 223.804 380.192 225.788 382.144C227.772 384.064 228.764 386.848 228.764 390.496V406H224.444V391.12C224.444 388.496 223.788 386.496 222.476 385.12C221.164 383.712 219.372 383.008 217.1 383.008C214.796 383.008 212.956 383.728 211.58 385.168C210.236 386.608 209.564 388.704 209.564 391.456V406H205.196V379.696H209.564V383.44C210.428 382.096 211.596 381.056 213.068 380.32C214.572 379.584 216.22 379.216 218.012 379.216ZM246.747 379.264C249.019 379.264 251.003 379.76 252.699 380.752C254.427 381.744 255.707 382.992 256.539 384.496V379.696H260.955V406.576C260.955 408.976 260.443 411.104 259.419 412.96C258.395 414.848 256.923 416.32 255.003 417.376C253.115 418.432 250.907 418.96 248.379 418.96C244.923 418.96 242.043 418.144 239.739 416.512C237.435 414.88 236.075 412.656 235.659 409.84H239.979C240.459 411.44 241.451 412.72 242.955 413.68C244.459 414.672 246.267 415.168 248.379 415.168C250.779 415.168 252.731 414.416 254.235 412.912C255.771 411.408 256.539 409.296 256.539 406.576V401.056C255.675 402.592 254.395 403.872 252.699 404.896C251.003 405.92 249.019 406.432 246.747 406.432C244.411 406.432 242.283 405.856 240.363 404.704C238.475 403.552 236.987 401.936 235.899 399.856C234.811 397.776 234.267 395.408 234.267 392.752C234.267 390.064 234.811 387.712 235.899 385.696C236.987 383.648 238.475 382.064 240.363 380.944C242.283 379.824 244.411 379.264 246.747 379.264ZM256.539 392.8C256.539 390.816 256.139 389.088 255.339 387.616C254.539 386.144 253.451 385.024 252.075 384.256C250.731 383.456 249.243 383.056 247.611 383.056C245.979 383.056 244.491 383.44 243.147 384.208C241.803 384.976 240.731 386.096 239.931 387.568C239.131 389.04 238.731 390.768 238.731 392.752C238.731 394.768 239.131 396.528 239.931 398.032C240.731 399.504 241.803 400.64 243.147 401.44C244.491 402.208 245.979 402.592 247.611 402.592C249.243 402.592 250.731 402.208 252.075 401.44C253.451 400.64 254.539 399.504 255.339 398.032C256.139 396.528 256.539 394.784 256.539 392.8ZM285.502 384.544C286.366 383.04 287.646 381.792 289.342 380.8C291.07 379.776 293.07 379.264 295.342 379.264C297.678 379.264 299.79 379.824 301.677 380.944C303.597 382.064 305.102 383.648 306.19 385.696C307.278 387.712 307.822 390.064 307.822 392.752C307.822 395.408 307.278 397.776 306.19 399.856C305.102 401.936 303.597 403.552 301.677 404.704C299.79 405.856 297.678 406.432 295.342 406.432C293.102 406.432 291.118 405.936 289.39 404.944C287.694 403.92 286.398 402.656 285.502 401.152V418.48H281.134V379.696H285.502V384.544ZM303.358 392.752C303.358 390.768 302.958 389.04 302.158 387.568C301.358 386.096 300.27 384.976 298.894 384.208C297.55 383.44 296.062 383.056 294.43 383.056C292.83 383.056 291.342 383.456 289.966 384.256C288.622 385.024 287.534 386.16 286.702 387.664C285.902 389.136 285.502 390.848 285.502 392.8C285.502 394.784 285.902 396.528 286.702 398.032C287.534 399.504 288.622 400.64 289.966 401.44C291.342 402.208 292.83 402.592 294.43 402.592C296.062 402.592 297.55 402.208 298.894 401.44C300.27 400.64 301.358 399.504 302.158 398.032C302.958 396.528 303.358 394.768 303.358 392.752ZM317.939 383.968C318.707 382.464 319.795 381.296 321.203 380.464C322.643 379.632 324.387 379.216 326.435 379.216V383.728H325.283C320.387 383.728 317.939 386.384 317.939 391.696V406H313.571V379.696H317.939V383.968ZM342.949 406.432C340.485 406.432 338.245 405.872 336.229 404.752C334.245 403.632 332.677 402.048 331.525 400C330.405 397.92 329.845 395.52 329.845 392.8C329.845 390.112 330.421 387.744 331.573 385.696C332.757 383.616 334.357 382.032 336.373 380.944C338.389 379.824 340.645 379.264 343.141 379.264C345.637 379.264 347.893 379.824 349.909 380.944C351.925 382.032 353.509 383.6 354.661 385.648C355.845 387.696 356.437 390.08 356.437 392.8C356.437 395.52 355.829 397.92 354.613 400C353.429 402.048 351.813 403.632 349.765 404.752C347.717 405.872 345.445 406.432 342.949 406.432ZM342.949 402.592C344.517 402.592 345.989 402.224 347.365 401.488C348.741 400.752 349.845 399.648 350.677 398.176C351.541 396.704 351.973 394.912 351.973 392.8C351.973 390.688 351.557 388.896 350.725 387.424C349.893 385.952 348.805 384.864 347.461 384.16C346.117 383.424 344.661 383.056 343.093 383.056C341.493 383.056 340.021 383.424 338.677 384.16C337.365 384.864 336.309 385.952 335.509 387.424C334.709 388.896 334.309 390.688 334.309 392.8C334.309 394.944 334.693 396.752 335.461 398.224C336.261 399.696 337.317 400.8 338.629 401.536C339.941 402.24 341.381 402.592 342.949 402.592ZM360.548 392.752C360.548 390.064 361.092 387.712 362.18 385.696C363.268 383.648 364.756 382.064 366.644 380.944C368.564 379.824 370.708 379.264 373.076 379.264C375.124 379.264 377.028 379.744 378.788 380.704C380.548 381.632 381.892 382.864 382.82 384.4V370.48H387.236V406H382.82V401.056C381.956 402.624 380.676 403.92 378.98 404.944C377.284 405.936 375.3 406.432 373.028 406.432C370.692 406.432 368.564 405.856 366.644 404.704C364.756 403.552 363.268 401.936 362.18 399.856C361.092 397.776 360.548 395.408 360.548 392.752ZM382.82 392.8C382.82 390.816 382.42 389.088 381.62 387.616C380.82 386.144 379.732 385.024 378.356 384.256C377.012 383.456 375.524 383.056 373.892 383.056C372.26 383.056 370.772 383.44 369.428 384.208C368.084 384.976 367.012 386.096 366.212 387.568C365.412 389.04 365.012 390.768 365.012 392.752C365.012 394.768 365.412 396.528 366.212 398.032C367.012 399.504 368.084 400.64 369.428 401.44C370.772 402.208 372.26 402.592 373.892 402.592C375.524 402.592 377.012 402.208 378.356 401.44C379.732 400.64 380.82 399.504 381.62 398.032C382.42 396.528 382.82 394.784 382.82 392.8ZM417.946 379.696V406H413.578V402.112C412.746 403.456 411.578 404.512 410.074 405.28C408.602 406.016 406.97 406.384 405.178 406.384C403.13 406.384 401.29 405.968 399.658 405.136C398.026 404.272 396.73 402.992 395.77 401.296C394.842 399.6 394.378 397.536 394.378 395.104V379.696H398.698V394.528C398.698 397.12 399.354 399.12 400.666 400.528C401.978 401.904 403.77 402.592 406.042 402.592C408.378 402.592 410.218 401.872 411.562 400.432C412.906 398.992 413.578 396.896 413.578 394.144V379.696H417.946ZM423.689 392.8C423.689 390.08 424.233 387.712 425.321 385.696C426.409 383.648 427.913 382.064 429.833 380.944C431.785 379.824 434.009 379.264 436.505 379.264C439.737 379.264 442.393 380.048 444.473 381.616C446.585 383.184 447.977 385.36 448.649 388.144H443.945C443.497 386.544 442.617 385.28 441.305 384.352C440.025 383.424 438.425 382.96 436.505 382.96C434.009 382.96 431.993 383.824 430.457 385.552C428.921 387.248 428.153 389.664 428.153 392.8C428.153 395.968 428.921 398.416 430.457 400.144C431.993 401.872 434.009 402.736 436.505 402.736C438.425 402.736 440.025 402.288 441.305 401.392C442.585 400.496 443.465 399.216 443.945 397.552H448.649C447.945 400.24 446.537 402.4 444.425 404.032C442.313 405.632 439.673 406.432 436.505 406.432C434.009 406.432 431.785 405.872 429.833 404.752C427.913 403.632 426.409 402.048 425.321 400C424.233 397.952 423.689 395.552 423.689 392.8ZM459.805 383.296V398.8C459.805 400.08 460.077 400.992 460.621 401.536C461.165 402.048 462.109 402.304 463.453 402.304H466.669V406H462.733C460.301 406 458.477 405.44 457.261 404.32C456.045 403.2 455.437 401.36 455.437 398.8V383.296H452.029V379.696H455.437V373.072H459.805V379.696H466.669V383.296H459.805ZM481.274 406.432C479.258 406.432 477.45 406.096 475.85 405.424C474.25 404.72 472.986 403.76 472.058 402.544C471.13 401.296 470.618 399.872 470.522 398.272H475.034C475.162 399.584 475.77 400.656 476.858 401.488C477.978 402.32 479.434 402.736 481.226 402.736C482.89 402.736 484.202 402.368 485.162 401.632C486.122 400.896 486.602 399.968 486.602 398.848C486.602 397.696 486.09 396.848 485.066 396.304C484.042 395.728 482.458 395.168 480.314 394.624C478.362 394.112 476.762 393.6 475.514 393.088C474.298 392.544 473.242 391.76 472.346 390.736C471.482 389.68 471.05 388.304 471.05 386.608C471.05 385.264 471.45 384.032 472.25 382.912C473.05 381.792 474.186 380.912 475.658 380.272C477.13 379.6 478.81 379.264 480.698 379.264C483.61 379.264 485.962 380 487.754 381.472C489.546 382.944 490.506 384.96 490.634 387.52H486.266C486.17 386.144 485.61 385.04 484.586 384.208C483.594 383.376 482.25 382.96 480.554 382.96C478.986 382.96 477.738 383.296 476.81 383.968C475.882 384.64 475.418 385.52 475.418 386.608C475.418 387.472 475.69 388.192 476.234 388.768C476.81 389.312 477.514 389.76 478.346 390.112C479.21 390.432 480.394 390.8 481.898 391.216C483.786 391.728 485.322 392.24 486.506 392.752C487.69 393.232 488.698 393.968 489.53 394.96C490.394 395.952 490.842 397.248 490.874 398.848C490.874 400.288 490.474 401.584 489.674 402.736C488.874 403.888 487.738 404.8 486.266 405.472C484.826 406.112 483.162 406.432 481.274 406.432ZM498.432 406.288C497.6 406.288 496.896 406 496.32 405.424C495.744 404.848 495.456 404.144 495.456 403.312C495.456 402.48 495.744 401.776 496.32 401.2C496.896 400.624 497.6 400.336 498.432 400.336C499.232 400.336 499.904 400.624 500.448 401.2C501.024 401.776 501.312 402.48 501.312 403.312C501.312 404.144 501.024 404.848 500.448 405.424C499.904 406 499.232 406.288 498.432 406.288Z" fill="#D9D9D9"/>
<path d="M946.829 394.535L991.746 315.834C994.773 310.53 1002.39 310.437 1005.54 315.664L1028.04 352.927C1029.56 355.437 1029.58 358.575 1028.09 361.106L1003.82 402.544C1002.38 404.994 999.755 406.5 996.915 406.5H953.777C947.636 406.5 943.785 399.868 946.829 394.535Z" fill="white" stroke="white"/>
<path d="M1104.63 406.5H1147.72C1153.86 406.5 1157.71 399.868 1154.67 394.535L1048.85 209.11C1047.4 206.575 1044.69 205.029 1041.77 205.077L998.554 205.78C992.464 205.879 988.714 212.476 991.744 217.759L1097.69 402.48C1099.12 404.967 1101.77 406.5 1104.63 406.5Z" fill="white"/>
<path d="M1188.18 263L1166.65 300.057C1163.63 305.259 1156.16 305.389 1152.96 300.296L1129.35 262.743C1127.89 260.414 1125.33 259 1122.58 259H1118.88C1116.15 259 1113.61 257.608 1112.14 255.307L1087.98 217.492C1084.55 212.129 1088.46 205.106 1094.82 205.185L1155.44 205.943C1158.27 205.978 1160.86 207.502 1162.27 209.952L1188.19 254.991C1189.62 257.471 1189.61 260.525 1188.18 263Z" fill="white"/>
<path d="M1104.63 406.5H1147.72C1153.86 406.5 1157.71 399.868 1154.67 394.535L1048.85 209.11C1047.4 206.575 1044.69 205.029 1041.77 205.077L998.554 205.78C992.464 205.879 988.714 212.476 991.744 217.759L1097.69 402.48C1099.12 404.967 1101.77 406.5 1104.63 406.5Z" stroke="white"/>
<path d="M1188.18 263L1166.65 300.057C1163.63 305.259 1156.16 305.389 1152.96 300.296L1129.35 262.743C1127.89 260.414 1125.33 259 1122.58 259H1118.88C1116.15 259 1113.61 257.608 1112.14 255.307L1087.98 217.492C1084.55 212.129 1088.46 205.106 1094.82 205.185L1155.44 205.943C1158.27 205.978 1160.86 207.502 1162.27 209.952L1188.19 254.991C1189.62 257.471 1189.61 260.525 1188.18 263Z" stroke="white"/>
<g clip-path="url(#clip0_213_15)">
<path d="M1182.5 536.5H1195.5C1203.5 536.5 1203.5 544.5 1195.5 544.5H1182.5V536.5ZM1151.5 573.5H1191.5V562.5H1182.5V554.5H1192.5C1203.5 554.5 1197.5 573.5 1206.5 573.5H1231.5V554.5H1225.5V556.5C1225.5 564.5 1216.5 563.5 1215.5 558.5C1214.5 553.5 1210.5 549.5 1209.5 549.5C1224.5 541.5 1215.5 525.5 1203.5 525.5H1156.5V536.5H1166.5V562.5H1151.5V573.5Z" fill="white" stroke="white" stroke-linejoin="round"/>
<path d="M1191 594C1214.75 594 1234 574.748 1234 551C1234 527.252 1214.75 508 1191 508C1167.25 508 1148 527.252 1148 551C1148 574.748 1167.25 594 1191 594Z" stroke="white" stroke-width="9"/>
<path d="M1237 554L1242 551L1237 548V554Z" fill="white" stroke="white" stroke-width="3" stroke-linejoin="round"/>
<path d="M1235.53 562.917L1241.02 560.95L1236.7 557.032L1235.53 562.917Z" fill="white" stroke="white" stroke-width="3" stroke-linejoin="round"/>
<path d="M1232.35 571.375L1238.12 570.517L1234.65 565.832L1232.35 571.375Z" fill="white" stroke="white" stroke-width="3" stroke-linejoin="round"/>
<path d="M1227.58 579.051L1233.4 579.334L1230.91 574.062L1227.58 579.051Z" fill="white" stroke="white" stroke-width="3" stroke-linejoin="round"/>
<path d="M1221.41 585.648L1227.06 587.062L1225.65 581.406L1221.41 585.648Z" fill="white" stroke="white" stroke-width="3" stroke-linejoin="round"/>
<path d="M1214.06 590.914L1219.33 593.405L1219.05 587.581L1214.06 590.914Z" fill="white" stroke="white" stroke-width="3" stroke-linejoin="round"/>
<path d="M1205.83 594.647L1210.52 598.118L1211.38 592.35L1205.83 594.647Z" fill="white" stroke="white" stroke-width="3" stroke-linejoin="round"/>
<path d="M1197.03 596.701L1200.95 601.02L1202.92 595.531L1197.03 596.701Z" fill="white" stroke="white" stroke-width="3" stroke-linejoin="round"/>
<path d="M1188 597L1191 602L1194 597H1188Z" fill="white" stroke="white" stroke-width="3" stroke-linejoin="round"/>
<path d="M1179.08 595.531L1181.05 601.02L1184.97 596.701L1179.08 595.531Z" fill="white" stroke="white" stroke-width="3" stroke-linejoin="round"/>
<path d="M1170.62 592.35L1171.48 598.118L1176.17 594.647L1170.62 592.35Z" fill="white" stroke="white" stroke-width="3" stroke-linejoin="round"/>
<path d="M1162.95 587.581L1162.67 593.405L1167.94 590.914L1162.95 587.581Z" fill="white" stroke="white" stroke-width="3" stroke-linejoin="round"/>
<path d="M1156.35 581.406L1154.94 587.062L1160.59 585.648L1156.35 581.406Z" fill="white" stroke="white" stroke-width="3" stroke-linejoin="round"/>
<path d="M1151.09 574.062L1148.6 579.334L1154.42 579.051L1151.09 574.062Z" fill="white" stroke="white" stroke-width="3" stroke-linejoin="round"/>
<path d="M1147.35 565.832L1143.88 570.517L1149.65 571.375L1147.35 565.832Z" fill="white" stroke="white" stroke-width="3" stroke-linejoin="round"/>
<path d="M1145.3 557.032L1140.98 560.95L1146.47 562.917L1145.3 557.032Z" fill="white" stroke="white" stroke-width="3" stroke-linejoin="round"/>
<path d="M1145 548L1140 551L1145 554V548Z" fill="white" stroke="white" stroke-width="3" stroke-linejoin="round"/>
<path d="M1146.47 539.083L1140.98 541.05L1145.3 544.968L1146.47 539.083Z" fill="white" stroke="white" stroke-width="3" stroke-linejoin="round"/>
<path d="M1149.65 530.625L1143.88 531.483L1147.35 536.168L1149.65 530.625Z" fill="white" stroke="white" stroke-width="3" stroke-linejoin="round"/>
<path d="M1154.42 522.949L1148.6 522.666L1151.09 527.938L1154.42 522.949Z" fill="white" stroke="white" stroke-width="3" stroke-linejoin="round"/>
<path d="M1160.59 516.352L1154.94 514.938L1156.35 520.594L1160.59 516.352Z" fill="white" stroke="white" stroke-width="3" stroke-linejoin="round"/>
<path d="M1167.94 511.086L1162.67 508.595L1162.95 514.419L1167.94 511.086Z" fill="white" stroke="white" stroke-width="3" stroke-linejoin="round"/>
<path d="M1176.17 507.353L1171.48 503.882L1170.62 509.65L1176.17 507.353Z" fill="white" stroke="white" stroke-width="3" stroke-linejoin="round"/>
<path d="M1184.97 505.299L1181.05 500.98L1179.08 506.469L1184.97 505.299Z" fill="white" stroke="white" stroke-width="3" stroke-linejoin="round"/>
<path d="M1194 505L1191 500L1188 505H1194Z" fill="white" stroke="white" stroke-width="3" stroke-linejoin="round"/>
<path d="M1202.92 506.469L1200.95 500.98L1197.03 505.299L1202.92 506.469Z" fill="white" stroke="white" stroke-width="3" stroke-linejoin="round"/>
<path d="M1211.38 509.65L1210.52 503.882L1205.83 507.353L1211.38 509.65Z" fill="white" stroke="white" stroke-width="3" stroke-linejoin="round"/>
<path d="M1219.05 514.419L1219.33 508.595L1214.06 511.086L1219.05 514.419Z" fill="white" stroke="white" stroke-width="3" stroke-linejoin="round"/>
<path d="M1225.65 520.594L1227.06 514.938L1221.41 516.352L1225.65 520.594Z" fill="white" stroke="white" stroke-width="3" stroke-linejoin="round"/>
<path d="M1230.91 527.938L1233.4 522.666L1227.58 522.949L1230.91 527.938Z" fill="white" stroke="white" stroke-width="3" stroke-linejoin="round"/>
<path d="M1234.65 536.168L1238.12 531.483L1232.35 530.625L1234.65 536.168Z" fill="white" stroke="white" stroke-width="3" stroke-linejoin="round"/>
<path d="M1236.7 544.968L1241.02 541.05L1235.53 539.083L1236.7 544.968Z" fill="white" stroke="white" stroke-width="3" stroke-linejoin="round"/>
<path d="M1184 509L1191 516L1198 509H1184Z" fill="white" stroke="white" stroke-width="6" stroke-linejoin="round"/>
<path d="M1228.78 531.364L1224.29 540.184L1233.11 544.679L1228.78 531.364Z" fill="white" stroke="white" stroke-width="6" stroke-linejoin="round"/>
<path d="M1221.35 580.864L1211.57 579.316L1210.02 589.093L1221.35 580.864Z" fill="white" stroke="white" stroke-width="6" stroke-linejoin="round"/>
<path d="M1171.98 589.093L1170.43 579.316L1160.65 580.864L1171.98 589.093Z" fill="white" stroke="white" stroke-width="6" stroke-linejoin="round"/>
<path d="M1148.89 544.679L1157.71 540.184L1153.22 531.364L1148.89 544.679Z" fill="white" stroke="white" stroke-width="6" stroke-linejoin="round"/>
</g>
<defs>
<linearGradient id="paint0_linear_213_15" x1="0" y1="624" x2="1280" y2="624" gradientUnits="userSpaceOnUse">
<stop stop-color="#AAD13B"/>
<stop offset="1" stop-color="#3BEBF7"/>
</linearGradient>
<clipPath id="clip0_213_15">
<rect width="106" height="106" fill="white" transform="translate(1138 498)"/>
</clipPath>
</defs>
</svg>
